<?xml version="1.0" encoding="UTF-8" standalone="no"?>
<svg
   xmlns:dc="http://purl.org/dc/elements/1.1/"
   xmlns:cc="http://creativecommons.org/ns#"
   xmlns:rdf="http://www.w3.org/1999/02/22-rdf-syntax-ns#"
   xmlns:svg="http://www.w3.org/2000/svg"
   xmlns="http://www.w3.org/2000/svg"
   xmlns:sodipodi="http://sodipodi.sourceforge.net/DTD/sodipodi-0.dtd"
   xmlns:inkscape="http://www.inkscape.org/namespaces/inkscape"
   width="600"
   height="900"
   viewBox="0 0 158.75 238.12501"
   version="1.1"
   id="svg8"
   inkscape:version="1.0.2 (e86c870879, 2021-01-15)"
   sodipodi:docname="artwork.svg">
  <defs
     id="defs2" />
  <sodipodi:namedview
     id="base"
     pagecolor="#ffffff"
     bordercolor="#666666"
     borderopacity="1.0"
     inkscape:pageopacity="0.0"
     inkscape:pageshadow="2"
     inkscape:zoom="0.7"
     inkscape:cx="204.91464"
     inkscape:cy="560.29754"
     inkscape:document-units="px"
     inkscape:current-layer="layer1"
     inkscape:document-rotation="0"
     showgrid="false"
     units="px"
     inkscape:pagecheckerboard="true"
     inkscape:showpageshadow="false"
     borderlayer="true"
     inkscape:window-width="1920"
     inkscape:window-height="1026"
     inkscape:window-x="0"
     inkscape:window-y="0"
     inkscape:window-maximized="1" />
  <metadata
     id="metadata5">
    <rdf:RDF>
      <cc:Work
         rdf:about="">
        <dc:format>image/svg+xml</dc:format>
        <dc:type
           rdf:resource="http://purl.org/dc/dcmitype/StillImage" />
        <dc:title></dc:title>
      </cc:Work>
    </rdf:RDF>
  </metadata>
  <g
     inkscape:groupmode="layer"
     id="layer1"
     inkscape:label="Layer 1">
    <rect
       style="fill:#cccccc;stroke:#cccccc;stroke-width:0.659169;stroke-linejoin:round"
       id="rect1405"
       width="158.09084"
       height="237.46584"
       x="0.32958472"
       y="0.32958454" />
    <g
       style="fill:none;stroke:#333333"
       id="g1424"
       transform="matrix(4.2333334,0,0,4.2333334,28.575001,50.800001)">
      <path
         stroke="currentColor"
         stroke-linecap="round"
         stroke-linejoin="round"
         stroke-width="1.5"
         d="m 19.25,12 c 0,4.0041 -3.2459,7.25 -7.25,7.25 -4.00406,0 -7.25,-3.2459 -7.25,-7.25 0,-4.00406 3.24594,-7.25 7.25,-7.25 4.0041,0 7.25,3.24594 7.25,7.25 z"
         id="path1407"
         style="stroke:#333333" />
      <path
         stroke="currentColor"
         stroke-linecap="round"
         stroke-linejoin="round"
         stroke-width="1.5"
         d="m 9.75,10 c 0,0 0.25,-2.25 2.25,-2.25 2,0 2.25,1.25 2.25,2.25 0,0.7513 -0.4234,1.5027 -1.2702,1.8299 C 12.4647,12.0289 12,12.4477 12,13 v 0.25"
         id="path1409"
         style="stroke:#333333" />
      <path
         stroke="currentColor"
         stroke-linecap="round"
         stroke-linejoin="round"
         d="m 12.5,16 c 0,0.2761 -0.2239,0.5 -0.5,0.5 -0.2761,0 -0.5,-0.2239 -0.5,-0.5 0,-0.2761 0.2239,-0.5 0.5,-0.5 0.2761,0 0.5,0.2239 0.5,0.5 z"
         id="path1411"
         style="stroke:#333333" />
    </g>
    <text
       xml:space="preserve"
       style="font-style:normal;font-weight:normal;font-size:14.1111px;line-height:1.25;font-family:sans-serif;fill:#333333;fill-opacity:1;stroke:#333333;stroke-width:0.264583"
       x="43.060116"
       y="160.46977"
       id="text1428"><tspan
         sodipodi:role="line"
         id="tspan1426"
         x="43.060116"
         y="160.46977"
         style="font-style:normal;font-variant:normal;font-weight:normal;font-stretch:normal;font-size:14.1111px;font-family:'Avenir LT Std';-inkscape-font-specification:'Avenir LT Std';fill:#333333;stroke:#333333;stroke-width:0.264583">No artwork</tspan></text>
  </g>
</svg>
