<?xml version="1.0" encoding="UTF-8"?>
<svg fill="none" version="1.1" viewBox="0 0 512 512" xmlns="http://www.w3.org/2000/svg" xmlns:cc="http://creativecommons.org/ns#" xmlns:dc="http://purl.org/dc/elements/1.1/" xmlns:rdf="http://www.w3.org/1999/02/22-rdf-syntax-ns#">
<metadata>
<rdf:RDF>
<cc:Work rdf:about="">
<dc:format>image/svg+xml</dc:format>
<dc:type rdf:resource="http://purl.org/dc/dcmitype/StillImage"/>
<dc:title/>
</cc:Work>
</rdf:RDF>
</metadata>
<g transform="matrix(1.3624 0 0 1.3624 -80.06 -117.44)" filter="url(#c)" stroke="#1c1c1c">
<path d="m176.02 92.455c22.895 0 40.504 20.242 37.335 42.917l-12.014 85.963c-0.508 3.72-0.761 7.526-0.761 11.416 0 14.038 3.805 25.37 11.416 33.996 7.78 8.625 18.52 12.938 32.22 12.938 11.332 0 21.48-2.79 30.444-8.372 8.964-5.75 16.237-13.361 21.818-22.833 5.75-9.471 9.387-19.873 10.909-31.205l12.952-92.354c2.611-18.617 18.537-32.466 37.336-32.466 22.894 0 40.504 20.238 37.34 42.911l-30.121 215.89c-2.692 19.295-19.194 33.654-38.676 33.654-22.217 0-39.146-19.904-35.579-41.833l3.048-18.745c-19.788 19.282-41.437 28.922-64.947 28.922-14.884 0-29.175-2.621-42.875-7.865l-12.425 78.331c-2.926 18.448-18.831 32.029-37.509 32.029-23.074 0-40.817-20.407-37.609-43.257l40.366-287.58c2.612-18.613 18.536-32.458 37.332-32.458z" fill="#1c1c1c" stroke-width="9.572"/>
<path d="m357.67 92.455c-18.799 0-34.725 13.849-37.336 32.466l-12.952 92.354c-0.033 0.246-0.067 0.491-0.102 0.735-13.325 95.291-63.219 127.38-121.42 127.38 13.7 5.244 27.991 7.865 42.875 7.865 23.51 0 45.159-9.64 64.947-28.922l-3.048 18.745c-3.567 21.929 13.362 41.833 35.579 41.833 19.482 0 35.984-14.359 38.676-33.654l30.121-215.89c3.164-22.673-14.446-42.911-37.34-42.911z" clip-rule="evenodd" fill="url(#a)" fill-rule="evenodd" stroke-width="4.5074"/>
</g>
<defs>
<linearGradient id="a" x1="92.248" x2="400.56" y1="92.455" y2="455.39" gradientUnits="userSpaceOnUse">
<stop stop-color="#FF00C7" offset="0"/>
<stop stop-color="#00FFF0" offset="1"/>
</linearGradient>
</defs>
</svg>
