<?xml version="1.0" encoding="UTF-8" standalone="no"?>
<svg
   xmlns:dc="http://purl.org/dc/elements/1.1/"
   xmlns:cc="http://creativecommons.org/ns#"
   xmlns:rdf="http://www.w3.org/1999/02/22-rdf-syntax-ns#"
   xmlns:svg="http://www.w3.org/2000/svg"
   xmlns="http://www.w3.org/2000/svg"
   xmlns:sodipodi="http://sodipodi.sourceforge.net/DTD/sodipodi-0.dtd"
   xmlns:inkscape="http://www.inkscape.org/namespaces/inkscape"
   fill="none"
   version="1.1"
   viewBox="0 0 512 512"
   id="svg27"
   sodipodi:docname="utopia.svg"
   inkscape:version="1.0.2 (e86c870879, 2021-01-15)">
  <metadata
     id="metadata31">
    <rdf:RDF>
      <cc:Work
         rdf:about="">
        <dc:format>image/svg+xml</dc:format>
        <dc:type
           rdf:resource="http://purl.org/dc/dcmitype/StillImage" />
      </cc:Work>
    </rdf:RDF>
  </metadata>
  <sodipodi:namedview
     pagecolor="#ffffff"
     bordercolor="#666666"
     borderopacity="1"
     objecttolerance="10"
     gridtolerance="10"
     guidetolerance="10"
     inkscape:pageopacity="0"
     inkscape:pageshadow="2"
     inkscape:window-width="1920"
     inkscape:window-height="1026"
     id="namedview29"
     showgrid="false"
     inkscape:zoom="1.4785156"
     inkscape:cx="256"
     inkscape:cy="256"
     inkscape:window-x="0"
     inkscape:window-y="0"
     inkscape:window-maximized="1"
     inkscape:current-layer="g8"
     inkscape:document-rotation="0" />
  <g
     filter="url(#c)"
     id="g8"
     style="stroke:#1c1c1c;stroke-width:9.57196346;stroke-miterlimit:4;stroke-dasharray:none;stroke-opacity:1"
     transform="matrix(1.3624164,0,0,1.3624164,-80.060343,-117.44038)">
    <path
       d="m 176.02,92.455 c 22.895,0 40.504,20.242 37.335,42.917 l -12.014,85.963 c -0.508,3.72 -0.761,7.526 -0.761,11.416 0,14.038 3.805,25.37 11.416,33.996 7.78,8.625 18.52,12.938 32.22,12.938 11.332,0 21.48,-2.79 30.444,-8.372 8.964,-5.75 16.237,-13.361 21.818,-22.833 5.75,-9.471 9.387,-19.873 10.909,-31.205 l 12.952,-92.354 c 2.611,-18.617 18.537,-32.466 37.336,-32.466 22.894,0 40.504,20.238 37.34,42.911 l -30.121,215.89 c -2.692,19.295 -19.194,33.654 -38.676,33.654 -22.217,0 -39.146,-19.904 -35.579,-41.833 l 3.048,-18.745 c -19.788,19.282 -41.437,28.922 -64.947,28.922 -14.884,0 -29.175,-2.621 -42.875,-7.865 L 173.44,423.72 c -2.926,18.448 -18.831,32.029 -37.509,32.029 -23.074,0 -40.817,-20.407 -37.609,-43.257 l 40.366,-287.58 C 141.3,106.299 157.224,92.454 176.02,92.454 Z"
       fill="url(#b)"
       id="path4"
       style="fill:url(#b);stroke:#1c1c1c;stroke-width:9.57196346;stroke-miterlimit:4;stroke-dasharray:none;stroke-opacity:1" />
    <path
       d="m 357.67,92.455 c -18.799,0 -34.725,13.849 -37.336,32.466 l -12.952,92.354 c -0.033,0.246 -0.067,0.491 -0.102,0.735 -13.325,95.291 -63.219,127.38 -121.42,127.38 13.7,5.244 27.991,7.865 42.875,7.865 23.51,0 45.159,-9.64 64.947,-28.922 l -3.048,18.745 c -3.567,21.929 13.362,41.833 35.579,41.833 19.482,0 35.984,-14.359 38.676,-33.654 l 30.121,-215.89 c 3.164,-22.673 -14.446,-42.911 -37.34,-42.911 z"
       clip-rule="evenodd"
       fill="url(#a)"
       fill-rule="evenodd"
       id="path6"
       style="display:inline;fill:url(#a);stroke:#1c1c1c;stroke-width:4.50743253;stroke-miterlimit:4;stroke-dasharray:none;stroke-opacity:1" />
  </g>
  <defs
     id="defs25">
    <linearGradient
       id="b"
       x1="92"
       x2="401"
       y1="92"
       y2="456"
       gradientUnits="userSpaceOnUse">
      <stop
         stop-color="#fff"
         offset="0"
         id="stop12" />
      <stop
         stop-color="#F0F0F0"
         offset="1"
         id="stop14" />
    </linearGradient>
    <linearGradient
       id="a"
       x1="92.248"
       x2="400.56"
       y1="92.455"
       y2="455.39"
       gradientUnits="userSpaceOnUse">
      <stop
         stop-color="#FF00C7"
         offset="0"
         id="stop17" />
      <stop
         stop-color="#00FFF0"
         offset="1"
         id="stop19" />
    </linearGradient>
    <clipPath
       id="d">
      <rect
         width="512"
         height="512"
         fill="#fff"
         id="rect22" />
    </clipPath>
  </defs>
</svg>
